<svg width="118" height="73" viewBox="0 0 118 73" fill="none" xmlns="http://www.w3.org/2000/svg">
<path d="M56.1174 32.2867L56.5766 30.8587L56.1174 32.2867ZM43.9377 49.1232L45.4283 48.9557L43.9377 49.1232ZM117.248 13.3883C117.89 12.8646 117.985 11.9197 117.462 11.2778L108.927 0.817905C108.403 0.176032 107.458 0.0802576 106.816 0.603985C106.175 1.12771 106.079 2.07262 106.603 2.71449L114.189 12.0122L104.891 19.5985C104.249 20.1223 104.154 21.0672 104.677 21.7091C105.201 22.3509 106.146 22.4467 106.788 21.923L117.248 13.3883ZM4.08928 71.3912C4.03026 71.2704 3.95145 70.9845 3.98021 70.4427C4.00825 69.9143 4.13353 69.2385 4.37906 68.4195C4.87008 66.7815 5.79299 64.7305 7.11587 62.4205C9.75706 57.8087 13.8912 52.3408 18.9784 47.346C29.2568 37.2544 42.8697 29.602 55.6582 33.7147L56.5766 30.8587C42.0856 26.1985 27.3143 34.9573 16.8766 45.2053C11.6058 50.3804 7.29885 56.0644 4.51256 60.9296C3.1217 63.3583 2.08427 65.627 1.5054 67.558C1.21599 68.5235 1.02895 69.4445 0.984422 70.2837C0.940605 71.1093 1.02897 71.9618 1.39401 72.7086L4.08928 71.3912ZM55.6582 33.7147C66.4709 37.1919 70.7396 41.6427 71.7158 45.449C72.6781 49.2013 70.6193 53.1223 66.807 56.0385C63.0138 58.94 57.9173 60.475 53.7117 59.649C51.6417 59.2425 49.794 58.2697 48.3621 56.6062C46.9245 54.9361 45.8237 52.4729 45.4283 48.9557L42.4471 49.2908C42.8942 53.2682 44.1747 56.3402 46.0884 58.5634C48.0079 60.7933 50.4814 62.0719 53.1335 62.5928C58.3721 63.6217 64.3235 61.7153 68.6297 58.4213C72.9168 55.1419 76.009 50.1132 74.6217 44.7037C73.2483 39.3483 67.6668 34.4252 56.5766 30.8587L55.6582 33.7147ZM45.4283 48.9557C44.0685 36.8583 50.2149 27.0009 62.4999 20.6261C74.8576 14.2135 93.3451 11.4072 116.148 13.7185L116.451 10.7338C93.3161 8.38886 74.1788 11.1858 61.1182 17.9632C47.9848 24.7783 40.9192 35.6976 42.4471 49.2908L45.4283 48.9557Z" fill="white"/>
</svg>
